<svg id="Capa_1" data-name="Capa 1" xmlns="http://www.w3.org/2000/svg" viewBox="0 0 90 30.1">
  <title>b-aivo-navlogo</title>
  <g>
    <path d="M77.2,10h0a8,8,0,0,0-8.1,8.2,8,8,0,0,0,8.1,8.3,8,8,0,0,0,8-8.3,7.9,7.9,0,0,0-8-8.2Zm0,20.4h0c-7.7,0-12.8-5.4-12.8-12.2S69.5,6.1,77.2,6.1,90,11.4,90,18.2,84.9,30.4,77.2,30.4Z" transform="translate(0 -0.3)"/>
    <path d="M59.1,7.8h0c1.1-2.6,5.6-.8,4.2,1.9L55,26.6c-1.3,2.7-2.2,3.2-3.3,3.2s-2.1-.5-3.5-3.2L39.9,9.7C38.5,7,43.2,5.2,44.2,7.8L51.7,24,59.1,7.8Z" transform="translate(0 -0.3)"/>
    <path d="M31.3,8.7h0c0-2.9,4.5-2.8,4.5,0V20.5c0,3.8.6,5.1,1.7,5.2s1.9,4.1-.8,4.1-5.4-2.5-5.4-7.8V8.7Z" transform="translate(0 -0.3)"/>
    <path d="M35.9,2.6h0a2.4,2.4,0,0,1-2.3,2.3,2.3,2.3,0,0,1-2.3-2.3A2.3,2.3,0,0,1,33.6.3a2.3,2.3,0,0,1,2.3,2.3Z" transform="translate(0 -0.3)"/>
    <path d="M12.8,26.4h0a7.9,7.9,0,0,1-8-8.2,8,8,0,0,1,8-8.3,8,8,0,0,1,8.1,8.3,8,8,0,0,1-8.1,8.2Zm14.4-.7h0c-1-.1-1.4-.9-1.6-3.2V18.2h0C25.6,11.4,20.5,6,12.8,6S0,11.4,0,18.2,5.1,30.4,12.8,30.4a13.2,13.2,0,0,0,9-3.3,4.6,4.6,0,0,0,4.6,2.7c2.8,0,2.7-3.7.8-4.1Z" transform="translate(0 -0.3)"/>
  </g>
</svg>
